<?xml version="1.0" encoding="utf-8"?>
<!-- Generator: Adobe Illustrator 22.0.0, SVG Export Plug-In . SVG Version: 6.00 Build 0)  -->
<svg version="1.1" id="Capa_1" xmlns="http://www.w3.org/2000/svg" xmlns:xlink="http://www.w3.org/1999/xlink" x="0px" y="0px"
	 viewBox="0 0 512 512" style="enable-background:new 0 0 512 512;" xml:space="preserve">
<style type="text/css">
	.st0{fill:#FFFFFF;}
	.st1{fill:#20A1F9;}
</style>
<circle class="st0" cx="254" cy="261.3" r="175"/>
<g>
	<path class="st1" d="M437.1,74.9C337.2-25,174.8-25,74.9,74.9s-99.9,262.3,0,362.2s262.3,99.9,362.2,0
		C537,337.2,537,174.8,437.1,74.9z M357,357c-7.7,7.7-20.2,7.7-27.9,0L256,283.9l-76.6,76.6c-7.7,7.7-20.2,7.7-27.9,0
		s-7.7-20.2,0-27.9l76.6-76.6L155,182.9c-7.7-7.7-7.7-20.2,0-27.9c7.7-7.7,20.2-7.7,27.9,0l73.1,73.1l69.7-69.7
		c7.7-7.7,20.2-7.7,27.9,0c7.7,7.7,7.7,20.2,0,27.9L283.9,256l73.1,73.1C364.7,336.8,364.7,349.3,357,357z"/>
</g>
</svg>
