<svg xmlns="http://www.w3.org/2000/svg" viewBox="4595 566 40 40.045">
  <defs>
    <style>
      .cls-1 {
        fill: #fff;
      }
    </style>
  </defs>
  <g id="money" transform="translate(4253 -12)">
    <g id="money-back" transform="translate(341.709 578)">
      <g id="Group_35" data-name="Group 35" transform="translate(0.291 21.885)">
        <g id="Group_34" data-name="Group 34">
          <path id="Path_74" data-name="Path 74" class="cls-1" d="M39.765,281.193a3.36,3.36,0,0,0-2.439-1.375,2.421,2.421,0,0,0-1.965.734c-.109.115-.227.242-.351.378a3.343,3.343,0,0,0-1.995-.876,2.421,2.421,0,0,0-1.965.734c-1.081,1.144-2.994,3.379-4.5,5.158a3.112,3.112,0,0,0-.628-.283c-.718-.309-10.621-4.538-15.01-4.538-7.09,0-10.348,3.811-10.483,3.973a.588.588,0,0,0,.9.754,9.166,9.166,0,0,1,2.323-1.778,14.647,14.647,0,0,1,7.258-1.774c4.217,0,14.468,4.409,14.571,4.454a3.354,3.354,0,0,1,.555.258,1.9,1.9,0,0,1,.43.395,1.919,1.919,0,0,1-.682,2.939,1.989,1.989,0,0,1-1.408.09l-6.413-1.766a.588.588,0,1,0-.312,1.133l6.4,1.764a3.1,3.1,0,0,0,4.005-2.819l1.72-.181a.588.588,0,0,0,.39-.208c.042-.051,4.26-5.114,6.039-7,.739-.783,2.06-.228,2.594.518.821,1.147-.2,2.4-.532,2.756-1.633,1.752-4.627,5.361-5.165,6.012l-12.186,6.093-6.27-2.64a.588.588,0,0,0-.456,1.083l6.519,2.745a.592.592,0,0,0,.491-.016l12.539-6.27a.587.587,0,0,0,.19-.152c.034-.042,3.462-4.192,5.2-6.055C40.415,284.063,40.656,282.437,39.765,281.193ZM29.426,287.42l-1.532.161a3.139,3.139,0,0,0-.463-.855c1.28-1.515,3.36-3.954,4.473-5.132a1.259,1.259,0,0,1,1.03-.368,2.172,2.172,0,0,1,1.289.577C32.46,283.794,30.059,286.661,29.426,287.42Z" transform="translate(-0.297 -279.811)"/>
        </g>
      </g>
      <g id="Group_37" data-name="Group 37" transform="translate(0.291 33.855)">
        <g id="Group_36" data-name="Group 36" transform="translate(0)">
          <path id="Path_75" data-name="Path 75" class="cls-1" d="M11.765,433.951,9.257,432.9a.587.587,0,0,0-.228-.046H.879a.588.588,0,0,0,0,1.176H8.91l2.4,1.01a.588.588,0,0,0,.456-1.083Z" transform="translate(-0.291 -432.849)"/>
        </g>
      </g>
      <g id="Group_39" data-name="Group 39" transform="translate(8.441)">
        <g id="Group_38" data-name="Group 38">
          <path id="Path_76" data-name="Path 76" class="cls-1" d="M127.573,19.6l-2.5.358a11.874,11.874,0,1,0-18.141-.884,11.959,11.959,0,0,0,6.145,4.21.588.588,0,0,0,.326-1.129,10.7,10.7,0,1,1,13.669-10.279,10.619,10.619,0,0,1-3.213,7.645v-3.1a.588.588,0,1,0-1.176,0v4.389a.594.594,0,0,0,.671.582l4.389-.627a.588.588,0,1,0-.166-1.164Z" transform="translate(-104.498)"/>
        </g>
      </g>
    </g>
    <g id="ruble-currency-sign" transform="translate(333.74 584.823)">
      <g id="Group_42" data-name="Group 42" transform="translate(23.189)">
        <path id="Path_78" data-name="Path 78" class="cls-1" d="M23.435,9.113H25.16v1.478a.237.237,0,0,0,.246.246h1.285a.243.243,0,0,0,.173-.069.232.232,0,0,0,.073-.177V9.113h3.887a.237.237,0,0,0,.246-.246V7.882a.237.237,0,0,0-.246-.246H26.937V6.727h2.617a3.469,3.469,0,0,0,2.513-.939,3.218,3.218,0,0,0,.974-2.425A3.22,3.22,0,0,0,32.068.939,3.472,3.472,0,0,0,29.554,0H25.406a.237.237,0,0,0-.246.246V5.088H23.435a.233.233,0,0,0-.177.073.244.244,0,0,0-.069.173V6.481a.237.237,0,0,0,.246.246H25.16v.908H23.435a.237.237,0,0,0-.246.246v.985a.237.237,0,0,0,.246.246Zm3.5-7.474H29.4a1.828,1.828,0,0,1,1.316.477,1.645,1.645,0,0,1,.5,1.247,1.644,1.644,0,0,1-.5,1.247,1.827,1.827,0,0,1-1.316.477H26.937Z" transform="translate(-23.189 0)"/>
      </g>
    </g>
  </g>
</svg>
