<svg xmlns="http://www.w3.org/2000/svg" viewBox="340 6643 80 79.938">
  <defs>
    <style>
      .cls-1 {
        fill: #305c5e;
      }

      .cls-2 {
        fill: #3c6e71;
      }

      .cls-3 {
        fill: #284b63;
      }

      .cls-4 {
        fill: #d9d9d9;
      }

      .cls-5 {
        fill: #fff;
      }

      .cls-6 {
        fill: #1b384b;
      }

      .cls-7 {
        fill: #333;
      }
    </style>
  </defs>
  <g id="pay1" transform="translate(340 6643)">
    <path id="Path_21" data-name="Path 21" class="cls-1" d="M396,146.4l11.75,31.281,5.094-3.406V161.244C412.844,155.322,409.422,146.4,396,146.4Z" transform="translate(-334.125 -123.556)"/>
    <path id="Path_22" data-name="Path 22" class="cls-2" d="M389.441,161.259v16.422H374.3l3.391-31.281C387.05,146.4,389.441,155.322,389.441,161.259Z" transform="translate(-315.816 -123.556)"/>
    <path id="Path_23" data-name="Path 23" class="cls-2" d="M288.2,161.259v13.031l5.094,3.406h11.75V146.4C291.638,146.4,288.2,155.322,288.2,161.259Z" transform="translate(-243.169 -123.556)"/>
    <path id="Path_24" data-name="Path 24" class="cls-3" d="M378.281,200.5A3.281,3.281,0,0,0,375,203.781v6.047a3.281,3.281,0,1,0,6.563,0v-6.047A3.271,3.271,0,0,0,378.281,200.5Z" transform="translate(-316.406 -169.203)"/>
    <path id="Path_25" data-name="Path 25" class="cls-3" d="M83.712,8.1,77.9,24.819l5.813,16.719a16.719,16.719,0,1,0,0-33.438Z" transform="translate(-65.728 -6.866)"/>
    <path id="Path_26" data-name="Path 26" class="cls-2" d="M8.2,24.819A16.718,16.718,0,0,0,24.919,41.538V8.1A16.718,16.718,0,0,0,8.2,24.819Z" transform="translate(-6.919 -6.866)"/>
    <path id="Path_27" data-name="Path 27" class="cls-4" d="M115.1,40.8V64.019a11.609,11.609,0,1,0,0-23.219Z" transform="translate(-97.116 -34.456)"/>
    <path id="Path_28" data-name="Path 28" class="cls-5" d="M52.409,40.8a11.609,11.609,0,1,0,0,23.219c4.391,0,7.953-5.187,7.953-11.609S56.8,40.8,52.409,40.8Z" transform="translate(-34.425 -34.456)"/>
    <path id="Path_29" data-name="Path 29" class="cls-6" d="M407.75,324.8,396,352.691c13.406,0,16.844-8.922,16.844-14.859V324.8Z" transform="translate(-334.125 -274.081)"/>
    <path id="Path_30" data-name="Path 30" class="cls-3" d="M288.2,324.8v13.031c0,5.937,3.438,14.859,16.844,14.859,9.344,0,11.75-8.922,11.75-14.859V324.8Z" transform="translate(-243.169 -274.081)"/>
    <path id="Path_31" data-name="Path 31" class="cls-7" d="M298.125,138.5C284.75,138.5,280,147.187,280,154.641v26.047c0,7.438,4.75,16.141,18.125,16.141s18.125-8.687,18.125-16.141V154.641C316.25,147.187,311.5,138.5,298.125,138.5ZM313.7,180.687a13.892,13.892,0,0,1-3.094,8.828c-2.687,3.156-6.891,4.75-12.484,4.75s-9.8-1.594-12.484-4.75a13.987,13.987,0,0,1-3.094-8.828V154.641a13.892,13.892,0,0,1,3.094-8.828c2.688-3.156,6.891-4.75,12.484-4.75s9.8,1.594,12.484,4.75a13.987,13.987,0,0,1,3.094,8.828v26.047Z" transform="translate(-236.25 -116.891)"/>
    <path id="Path_32" data-name="Path 32" class="cls-7" d="M50.906,2.762a9.713,9.713,0,0,1,9.7,9.7v5.516a1.281,1.281,0,0,0,2.563,0V12.45a12.25,12.25,0,0,0-24.5-.062V46.341a9.7,9.7,0,0,1-19.406-.078V36.122a17.883,17.883,0,1,0-2.547.016V46.278a12.25,12.25,0,0,0,24.5.062V12.387A9.653,9.653,0,0,1,50.906,2.762ZM2.547,18.2A15.438,15.438,0,1,1,17.984,33.637,15.451,15.451,0,0,1,2.547,18.2Z" transform="translate(0 -0.2)"/>
    <path id="Path_33" data-name="Path 33" class="cls-7" d="M96.116,77.037a.957.957,0,0,1-.953-.953,1.281,1.281,0,0,0-2.562,0,3.507,3.507,0,0,0,2.234,3.266V79.9a1.287,1.287,0,0,0,1.281,1.281h0A1.287,1.287,0,0,0,97.4,79.9V79.35a3.507,3.507,0,0,0,2.234-3.266,4.231,4.231,0,0,0-2.969-3.844c-1.172-.547-1.5-.891-1.5-1.547a.953.953,0,0,1,1.906,0,1.281,1.281,0,0,0,2.563,0A3.507,3.507,0,0,0,97.4,67.428v-.547A1.287,1.287,0,0,0,96.116,65.6h0a1.287,1.287,0,0,0-1.281,1.281v.547A3.507,3.507,0,0,0,92.6,70.694a4.231,4.231,0,0,0,2.969,3.844c1.172.547,1.5.891,1.5,1.547A.957.957,0,0,1,96.116,77.037Z" transform="translate(-78.131 -55.381)"/>
    <path id="Path_34" data-name="Path 34" class="cls-7" d="M59.982,45.791a12.884,12.884,0,0,0-25.453-2.828,1.281,1.281,0,1,0,2.5.562,10.344,10.344,0,1,1,0,4.563,1.281,1.281,0,1,0-2.5.563,12.883,12.883,0,0,0,25.453-2.859Z" transform="translate(-29.107 -27.791)"/>
    <path id="Path_35" data-name="Path 35" class="cls-7" d="M326.913,193.881v-4.437a4.57,4.57,0,0,0,3.281-4.375v-6.047a4.556,4.556,0,0,0-3.281-4.375v-2.266a1.281,1.281,0,0,0-2.563,0v2.266a4.57,4.57,0,0,0-3.281,4.375v6.047a4.556,4.556,0,0,0,3.281,4.375v4.437H313.881a1.281,1.281,0,1,0,0,2.563h23.484a1.281,1.281,0,0,0,0-2.562Zm-3.281-8.8v-6.047a2.016,2.016,0,0,1,4.031,0v6.047a2.016,2.016,0,0,1-4.031,0Z" transform="translate(-263.756 -144.397)"/>
  </g>
</svg>
