<svg xmlns="http://www.w3.org/2000/svg" viewBox="340 6765.339 80 78.656">
  <defs>
    <style>
      .cls-1 {
        fill: #d9d9d9;
      }

      .cls-2 {
        fill: #dbdbdb;
      }

      .cls-3 {
        fill: #bdbdbd;
      }

      .cls-4 {
        fill: #3c6e71;
      }

      .cls-5 {
        fill: #284b63;
      }

      .cls-6 {
        fill: #87ced9;
      }

      .cls-7 {
        fill: #6cbbc7;
      }

      .cls-8 {
        fill: #3e8cc7;
      }

      .cls-9 {
        fill: #de4c3c;
      }

      .cls-10 {
        fill: #126099;
      }

      .cls-11 {
        fill: #d1d1d1;
      }
    </style>
  </defs>
  <g id="pay2" transform="translate(340 6765.339)">
    <path id="Path_36" data-name="Path 36" class="cls-1" d="M86.8,72.1V4.3h35.25l13.563,13.562V72.1Z" transform="translate(-73.237 -4.3)"/>
    <path id="Path_37" data-name="Path 37" class="cls-2" d="M325.963,17.862H312.4V4.3Z" transform="translate(-263.587 -4.3)"/>
    <g id="Group_9" data-name="Group 9" transform="translate(18.968 4.078)">
      <rect id="Rectangle_53" data-name="Rectangle 53" class="cls-3" width="25.766" height="2.719" transform="translate(0.017)"/>
      <rect id="Rectangle_54" data-name="Rectangle 54" class="cls-3" width="2.719" height="6.781" transform="translate(0 8.016) rotate(-89.049)"/>
      <rect id="Rectangle_55" data-name="Rectangle 55" class="cls-3" width="16.266" height="2.719" transform="translate(9.501 5.422)"/>
      <path id="Path_38" data-name="Path 38" class="cls-3" d="M260.625,125.8H243v2.719h16.266v5.422H243v2.719h16.266v5.422H243V144.8h16.266v5.406H243v2.719h16.266v5.422H243v2.719h16.266v5.422H243v2.719h17.625a1.36,1.36,0,0,0,1.359-1.359V127.159A1.36,1.36,0,0,0,260.625,125.8Z" transform="translate(-223.999 -110.894)"/>
    </g>
    <rect id="Rectangle_56" data-name="Rectangle 56" class="cls-4" width="43.391" height="62.375" transform="translate(0 16.281)"/>
    <path id="Path_39" data-name="Path 39" class="cls-5" d="M38.5,170.875H75.875V108.5H69.2Z" transform="translate(-32.484 -92.219)"/>
    <rect id="Rectangle_57" data-name="Rectangle 57" class="cls-6" width="32.547" height="10.844" transform="translate(5.422 23.062)"/>
    <path id="Path_40" data-name="Path 40" class="cls-4" d="M439.322,65.1v47.453l-2.7,2.719-2.719-2.719V65.1Z" transform="translate(-366.103 -55.6)"/>
    <path id="Path_41" data-name="Path 41" class="cls-7" d="M85.8,162.744h24.562V151.9h-7.422Z" transform="translate(-72.394 -128.838)"/>
    <g id="Group_10" data-name="Group 10" transform="translate(14.922 27.125)">
      <rect id="Rectangle_58" data-name="Rectangle 58" class="cls-8" width="2.719" height="2.719"/>
      <rect id="Rectangle_59" data-name="Rectangle 59" class="cls-8" width="2.719" height="2.719" transform="translate(5.422)"/>
      <rect id="Rectangle_60" data-name="Rectangle 60" class="cls-8" width="2.719" height="2.719" transform="translate(10.844)"/>
      <rect id="Rectangle_61" data-name="Rectangle 61" class="cls-8" width="2.719" height="2.719" transform="translate(16.266)"/>
    </g>
    <g id="Group_11" data-name="Group 11" transform="translate(6.781 42.047)">
      <rect id="Rectangle_62" data-name="Rectangle 62" class="cls-8" width="5.422" height="5.422"/>
      <rect id="Rectangle_63" data-name="Rectangle 63" class="cls-8" width="5.422" height="5.422" transform="translate(8.141)"/>
      <rect id="Rectangle_64" data-name="Rectangle 64" class="cls-8" width="5.422" height="5.422" transform="translate(16.266)"/>
      <rect id="Rectangle_65" data-name="Rectangle 65" class="cls-8" width="5.422" height="5.422" transform="translate(24.406)"/>
      <rect id="Rectangle_66" data-name="Rectangle 66" class="cls-8" width="5.422" height="5.422" transform="translate(0 8.125)"/>
      <rect id="Rectangle_67" data-name="Rectangle 67" class="cls-8" width="5.422" height="5.422" transform="translate(8.141 8.125)"/>
      <rect id="Rectangle_68" data-name="Rectangle 68" class="cls-8" width="5.422" height="5.422" transform="translate(16.266 8.125)"/>
      <rect id="Rectangle_69" data-name="Rectangle 69" class="cls-8" width="5.422" height="5.422" transform="translate(24.406 8.125)"/>
      <rect id="Rectangle_70" data-name="Rectangle 70" class="cls-8" width="5.422" height="5.422" transform="translate(0 16.266)"/>
      <rect id="Rectangle_71" data-name="Rectangle 71" class="cls-8" width="5.422" height="5.422" transform="translate(8.141 16.266)"/>
      <rect id="Rectangle_72" data-name="Rectangle 72" class="cls-8" width="5.422" height="5.422" transform="translate(16.266 16.266)"/>
    </g>
    <rect id="Rectangle_73" data-name="Rectangle 73" class="cls-9" width="5.422" height="13.563" transform="translate(31.188 58.312)"/>
    <g id="Group_12" data-name="Group 12" transform="translate(6.781 66.453)">
      <rect id="Rectangle_74" data-name="Rectangle 74" class="cls-8" width="5.422" height="5.422"/>
      <rect id="Rectangle_75" data-name="Rectangle 75" class="cls-8" width="5.422" height="5.422" transform="translate(8.141)"/>
      <rect id="Rectangle_76" data-name="Rectangle 76" class="cls-8" width="5.422" height="5.422" transform="translate(16.266)"/>
    </g>
    <path id="Path_42" data-name="Path 42" class="cls-5" d="M451.3,65.1v50.172l2.7-2.719V65.1Z" transform="translate(-380.784 -55.6)"/>
    <g id="Group_13" data-name="Group 13" transform="translate(67.797 13.562)">
      <path id="Path_43" data-name="Path 43" class="cls-10" d="M446.1,111.444h-2.719V93.819H433.9V91.1h10.844a1.36,1.36,0,0,1,1.359,1.359Z" transform="translate(-433.9 -91.1)"/>
      <rect id="Rectangle_77" data-name="Rectangle 77" class="cls-10" width="5.422" height="2.719" transform="translate(0 16.281)"/>
    </g>
    <rect id="Rectangle_78" data-name="Rectangle 78" class="cls-11" width="13.563" height="2.719" transform="translate(48.812 13.562)"/>
  </g>
</svg>
