<svg xmlns="http://www.w3.org/2000/svg" viewBox="4593 435 40 38.684">
  <defs>
    <style>
      .cls-1 {
        fill: #fff;
      }
    </style>
  </defs>
  <g id="tools" transform="translate(4592.999 428.08)">
    <g id="Group_17" data-name="Group 17" transform="translate(0.001 6.92)">
      <path id="Path_60" data-name="Path 60" class="cls-1" d="M39.916,36.612a6.982,6.982,0,0,0-9.428-4.39L23.64,25.374l9.093-9.024,2.153-.061a.761.761,0,0,0,.632-.373L38.6,10.734a.761.761,0,0,0-.114-.928L35.822,7.143a.761.761,0,0,0-.928-.114L29.712,10.11a.761.761,0,0,0-.373.632l-.061,2.146-9.07,9.055-6.224-6.224A6.962,6.962,0,0,0,3.263,8.74a.761.761,0,0,0,.053,1.294l3.454,1.925c.761.434.913,1.727.3,2.823s-1.8,1.659-2.564,1.233L1.3,14.28A.761.761,0,0,0,.174,15,6.962,6.962,0,0,0,9.86,20.961l5.661,5.661-2.45,2.45-.555-.548a1.59,1.59,0,0,0-2.2,0l-.761.761a1.522,1.522,0,0,0-.084,2.092l-9,8.986a1.522,1.522,0,0,0-.047,2.152l.047.047,2.572,2.572a1.522,1.522,0,0,0,2.152.047l.047-.047,9.009-9a1.522,1.522,0,0,0,2.092-.084l.761-.761a1.522,1.522,0,0,0,.047-2.152l-.047-.047-.555-.555,2.435-2.488,7.381,7.381A6.962,6.962,0,0,0,38.2,43.453a.761.761,0,0,0-.342-1.233l-4.284-1.149a1.408,1.408,0,0,1-.9-.875,2.793,2.793,0,0,1-.076-1.8c.32-1.195,1.332-2.047,2.184-1.819l4.238,1.141a.715.715,0,0,0,.205,0,.761.761,0,0,0,.685-1.111Zm-9.367-22.88a.761.761,0,0,0,.221-.517l.061-2.032,4.314-2.564,1.826,1.826L34.46,14.752l-2.07.076a.761.761,0,0,0-.517.221L22.59,24.324l-1.309-1.309ZM4.161,44.054l-2.61-2.595L10.6,32.435l1.309,1.309,1.248,1.294Zm11.132-9.131-1-1.012-.388-.388L10.7,30.3l.761-.761,4.565,4.626Zm.145-3.47-1.309-1.309,2.45-2.45L17.888,29Zm19.723,3.66a2.664,2.664,0,0,0-.692-.091A3.728,3.728,0,0,0,31.112,38a4.314,4.314,0,0,0,.145,2.777,2.9,2.9,0,0,0,1.91,1.75L36,43.293a5.44,5.44,0,0,1-8.081-5.92.761.761,0,0,0-.205-.708L10.56,19.5a.761.761,0,0,0-.9-.107A5.445,5.445,0,0,1,2,16.441l1.735.966a2.686,2.686,0,0,0,1.324.342,3.972,3.972,0,0,0,3.31-2.161c1.035-1.849.632-4.048-.89-4.9L5.264,9.433a5.44,5.44,0,0,1,7.13,6.354.761.761,0,0,0,.205.708L29.788,33.675a.761.761,0,0,0,.89.137,5.446,5.446,0,0,1,7.236,2.047Z" transform="translate(-0.001 -6.92)"/>
    </g>
  </g>
</svg>
