<svg xmlns="http://www.w3.org/2000/svg" viewBox="4595 500 40 39.998">
  <defs>
    <style>
      .cls-1 {
        fill: #fff;
      }
    </style>
  </defs>
  <g id="video" transform="translate(4595 499.99)">
    <g id="Group_19" data-name="Group 19" transform="translate(17.109 27.664)">
      <g id="Group_18" data-name="Group 18">
        <path id="Path_66" data-name="Path 66" class="cls-1" d="M220.334,354.209a.781.781,0,1,0,.229.552A.784.784,0,0,0,220.334,354.209Z" transform="translate(-219 -353.98)"/>
      </g>
    </g>
    <g id="Group_21" data-name="Group 21" transform="translate(0 4.227)">
      <g id="Group_20" data-name="Group 20">
        <path id="Path_67" data-name="Path 67" class="cls-1" d="M35,70.71a.781.781,0,0,0-.781.781v3.436H20.781V73a5.838,5.838,0,0,0-5.11-5.784,4.061,4.061,0,0,0,.91-2.565v-5.5a.781.781,0,0,0-.781-.781H11.712a3.3,3.3,0,0,0-3.294,3.294V64.65a4.061,4.061,0,0,0,.91,2.565A5.838,5.838,0,0,0,4.219,73v1.928H1.562V56.158a.608.608,0,0,1,.61-.606H18.411a.781.781,0,1,0,0-1.562H2.172A2.173,2.173,0,0,0,0,56.158V79.322A2.173,2.173,0,0,0,2.172,81.49H14.061V85.1a3.917,3.917,0,0,0-3.514,3.891.781.781,0,0,0,.781.781H24.453a.781.781,0,0,0,.781-.781A3.917,3.917,0,0,0,21.72,85.1V81.49H33.609a2.173,2.173,0,0,0,2.172-2.168v-7.83A.781.781,0,0,0,35,70.71ZM9.981,61.666a1.733,1.733,0,0,1,1.731-1.731h3.306v1.247a1.125,1.125,0,0,1-1.124,1.124H9.981Zm0,2.2h3.914a2.669,2.669,0,0,0,1.124-.247V64.65h0a2.519,2.519,0,1,1-5.038,0v-.781Zm3.43,4.862-.912.912-.912-.912ZM5.781,73a4.274,4.274,0,0,1,3.643-4.222L11.948,71.3a.781.781,0,0,0,1.1,0l2.523-2.523A4.274,4.274,0,0,1,19.219,73v1.928H5.781Zm17.757,15.21h-11.3a2.353,2.353,0,0,1,2.215-1.567h6.865A2.352,2.352,0,0,1,23.538,88.209Zm-7.915-3.13V81.49h4.534v3.589Zm18.6-5.757a.608.608,0,0,1-.61.606H2.172a.608.608,0,0,1-.61-.606V76.49H34.219Z" transform="translate(0 -53.99)"/>
      </g>
    </g>
    <g id="Group_23" data-name="Group 23" transform="translate(34.219 18.005)">
      <g id="Group_22" data-name="Group 22">
        <path id="Path_68" data-name="Path 68" class="cls-1" d="M439.334,230.569a.781.781,0,1,0,.229.552A.787.787,0,0,0,439.334,230.569Z" transform="translate(-438 -230.34)"/>
      </g>
    </g>
    <g id="Group_25" data-name="Group 25" transform="translate(28.359 3.682)">
      <g id="Group_24" data-name="Group 24">
        <path id="Path_69" data-name="Path 69" class="cls-1" d="M369.641,47.01h-5.859a.781.781,0,0,0,0,1.563h5.859a.781.781,0,0,0,0-1.562Z" transform="translate(-363 -47.01)"/>
      </g>
    </g>
    <g id="Group_27" data-name="Group 27" transform="translate(25.156 3.682)">
      <g id="Group_26" data-name="Group 26">
        <path id="Path_70" data-name="Path 70" class="cls-1" d="M323.333,47.239a.781.781,0,1,0,.229.552A.787.787,0,0,0,323.333,47.239Z" transform="translate(-322 -47.01)"/>
      </g>
    </g>
    <g id="Group_29" data-name="Group 29" transform="translate(25.156 7.119)">
      <g id="Group_28" data-name="Group 28">
        <path id="Path_71" data-name="Path 71" class="cls-1" d="M331.844,91.01h-9.062a.781.781,0,0,0,0,1.563h9.063a.781.781,0,0,0,0-1.562Z" transform="translate(-322 -91.01)"/>
      </g>
    </g>
    <g id="Group_31" data-name="Group 31" transform="translate(25.156 10.557)">
      <g id="Group_30" data-name="Group 30">
        <path id="Path_72" data-name="Path 72" class="cls-1" d="M331.844,135.01h-9.062a.781.781,0,0,0,0,1.563h9.063a.781.781,0,0,0,0-1.562Z" transform="translate(-322 -135.01)"/>
      </g>
    </g>
    <g id="Group_33" data-name="Group 33" transform="translate(20.937 0.01)">
      <g id="Group_32" data-name="Group 32">
        <path id="Path_73" data-name="Path 73" class="cls-1" d="M283.156.01h-11.25A3.911,3.911,0,0,0,268,3.916v8.359a3.912,3.912,0,0,0,3.464,3.881v2.03a.781.781,0,0,0,1.334.552l2.558-2.558h7.8a3.911,3.911,0,0,0,3.906-3.906V3.916A3.911,3.911,0,0,0,283.156.01ZM285.5,12.276a2.346,2.346,0,0,1-2.344,2.344h-8.125a.781.781,0,0,0-.552.229L273.026,16.3v-.9a.781.781,0,0,0-.781-.781h-.339a2.346,2.346,0,0,1-2.344-2.344V3.916a2.346,2.346,0,0,1,2.344-2.344h11.25A2.346,2.346,0,0,1,285.5,3.916Z" transform="translate(-268 -0.01)"/>
      </g>
    </g>
  </g>
</svg>
